<svg width="41" height="38" viewBox="0 0 41 38" fill="none" xmlns="http://www.w3.org/2000/svg">
<path fill-rule="evenodd" clip-rule="evenodd" d="M12.3926 3.9718H28.181C33.9306 3.9718 37.1766 6.91085 37.1935 12.0927V26.3232C37.1935 31.5035 33.9306 34.4441 28.181 34.4441H12.3926C6.64289 34.4441 3.38174 31.5035 3.38174 26.3232V12.0927C3.38174 6.91085 6.64289 3.9718 12.3926 3.9718ZM20.3706 28.1363C21.0992 28.1363 21.7061 27.6487 21.7738 26.9936V11.468C21.8414 10.9957 21.5895 10.5218 21.133 10.2643C20.658 10.0053 20.0832 10.0053 19.6284 10.2643C19.1702 10.5218 18.9184 10.9957 18.9674 11.468V26.9936C19.0536 27.6487 19.6605 28.1363 20.3706 28.1363ZM28.149 28.1363C28.859 28.1363 29.4659 27.6488 29.5521 26.9936V21.9961C29.6012 21.5071 29.3493 21.0515 28.8911 20.7925C28.4364 20.5335 27.8616 20.5335 27.3882 20.7925C26.93 21.0515 26.6781 21.5071 26.7458 21.9961V26.9936C26.8134 27.6488 27.4203 28.1363 28.149 28.1363ZM13.8956 26.9936C13.8279 27.6487 13.221 28.1363 12.4924 28.1363C11.7654 28.1363 11.1568 27.6487 11.0909 26.9936V16.4654C11.0402 15.9916 11.2921 15.5208 11.7502 15.2618C12.205 15.0028 12.7815 15.0028 13.2379 15.2618C13.6927 15.5208 13.948 15.9916 13.8956 16.4654V26.9936Z" fill="black"/>
</svg>
